<?xml version="1.0" encoding="UTF-8"?>
<svg width="19px" height="19px" viewBox="0 0 19 19" version="1.1" xmlns="http://www.w3.org/2000/svg" xmlns:xlink="http://www.w3.org/1999/xlink">
    <!-- Generator: Sketch 50 (54983) - http://www.bohemiancoding.com/sketch -->
    <title>Combined Shape</title>
    <desc>Created with Sketch.</desc>
    <defs></defs>
    <g id="Page-1" stroke="none" stroke-width="1" fill="none" fill-rule="evenodd">
        <g id="Export" transform="translate(-218.000000, -98.000000)" fill="#FFFFFF">
            <g id="Group-2">
                <path d="M229.350368,100.126838 C230.083042,100.310123 230.773573,100.599754 231.404608,100.978378 L233.209887,99.7748584 L235.225142,101.790113 L234.021622,103.595392 C234.400246,104.226427 234.689877,104.916958 234.873162,105.649632 L237,106.075 L237,108.925 L234.873162,109.350368 C234.689877,110.083042 234.400246,110.773573 234.021622,111.404608 L235.225142,113.209887 L233.209887,115.225142 L231.404608,114.021622 C230.773573,114.400246 230.083042,114.689877 229.350368,114.873162 L228.925,117 L226.075,117 L225.649632,114.873162 C224.916958,114.689877 224.226427,114.400246 223.595392,114.021622 L221.790113,115.225142 L219.774858,113.209887 L220.978378,111.404608 C220.599754,110.773573 220.310123,110.083042 220.126838,109.350368 L218,108.925 L218,106.075 L220.126838,105.649632 C220.310123,104.916958 220.599754,104.226427 220.978378,103.595392 L219.774858,101.790113 L221.790113,99.7748584 L223.595392,100.978378 C224.226427,100.599754 224.916958,100.310123 225.649632,100.126838 L226.075,98 L228.925,98 L229.350368,100.126838 Z M227.5,111.119118 C229.498783,111.119118 231.119118,109.498783 231.119118,107.5 C231.119118,105.501217 229.498783,103.880882 227.5,103.880882 C225.501217,103.880882 223.880882,105.501217 223.880882,107.5 C223.880882,109.498783 225.501217,111.119118 227.5,111.119118 Z" id="Combined-Shape"></path>
            </g>
        </g>
    </g>
</svg>